<?xml version="1.0" standalone="no"?>
<!DOCTYPE svg PUBLIC "-//W3C//DTD SVG 20010904//EN"
 "http://www.w3.org/TR/2001/REC-SVG-20010904/DTD/svg10.dtd">
<svg version="1.0" xmlns="http://www.w3.org/2000/svg"
 width="400.000000pt" height="120.000000pt" viewBox="0 0 400.000000 120.000000"
 preserveAspectRatio="xMidYMid meet">

<g transform="translate(0.000000,120.000000) scale(0.100000,-0.100000)"
fill="#0769db" stroke="none">
<path d="M473 1181 c-62 -21 -118 -62 -144 -105 l-19 -31 -1 43 c-1 23 -3 47
-4 52 -1 6 -3 17 -4 25 -1 12 -22 15 -121 15 l-120 0 0 -395 0 -395 134 0 134
0 4 233 c3 199 6 237 21 264 28 53 100 78 147 53 34 -18 40 -65 40 -311 l0
-239 135 0 136 0 -2 213 c-1 228 6 279 46 317 13 12 41 24 63 27 34 5 45 1 66
-20 l26 -26 0 -256 0 -255 136 0 136 0 -4 303 c-3 290 -4 304 -26 352 -13 28
-37 65 -54 83 -36 36 -121 72 -173 72 -58 0 -141 -38 -199 -91 l-54 -49 -22
35 c-27 44 -66 72 -127 90 -61 19 -85 18 -150 -4z"/>
<path d="M1678 1184 c-173 -41 -284 -161 -311 -333 -29 -192 58 -367 223 -445
61 -29 72 -31 180 -31 110 0 118 2 182 33 167 82 255 266 219 457 -31 166
-142 280 -313 320 -76 18 -105 18 -180 -1z m169 -239 c96 -56 112 -224 29
-304 -63 -61 -154 -61 -213 1 -40 42 -53 76 -53 142 0 137 129 225 237 161z"/>
<path d="M2182 1158 c65 -101 233 -383 231 -389 -1 -4 -53 -85 -116 -180 -62
-96 -116 -180 -121 -186 -6 -10 24 -13 138 -13 l145 0 52 88 c29 48 58 95 65
105 10 16 19 7 76 -85 l65 -103 147 -3 146 -3 -81 128 c-45 71 -104 163 -131
206 l-48 77 125 188 125 187 -142 3 c-78 1 -148 0 -155 -2 -7 -3 -31 -42 -54
-88 -74 -148 -64 -146 -128 -21 l-56 108 -149 3 -149 3 15 -23z"/>
<path d="M3073 1168 c3 -7 73 -188 156 -401 117 -301 149 -392 142 -406 -17
-31 -79 -79 -115 -89 -31 -9 -92 -7 -123 3 -10 3 -13 -25 -13 -120 l0 -124 46
-7 c194 -29 357 62 449 249 31 64 335 880 335 900 0 4 -64 6 -142 5 l-143 -3
-52 -180 c-29 -99 -62 -217 -74 -262 -11 -46 -25 -83 -29 -83 -4 0 -10 18 -14
40 -6 36 -62 239 -118 423 l-20 67 -145 0 c-112 0 -144 -3 -140 -12z"/>
</g>
</svg>
